<svg width="39" height="44" viewBox="0 0 39 44" fill="none" xmlns="http://www.w3.org/2000/svg">
<path d="M1 10.935L1.1039 10.5194L1.31169 10.1038L1.41559 9.89605L1.51948 9.68826L1.62338 9.58436L1.83117 9.48047V8.85709L2.14286 8.5454L2.35065 8.33761L2.55845 8.02592L2.76624 7.71423L2.97403 7.50644L3.59741 7.19475L4.013 6.77917L4.32469 6.57138C4.39395 6.57138 4.55326 6.36359 4.63637 6.36359C4.71949 6.36359 4.67101 5.60168 4.63637 5.22073L4.94806 4.38956L5.46755 3.97398L6.19482 3.55839L6.40261 3.03891L6.9221 2.83112H8.89613L9.83119 2.41553M9.83119 2.41553C9.90046 2.31164 9.41561 2.41553 9.41561 2.41553H9.83119ZM9.83119 2.41553L10.1429 2.10385L11.3896 1.89605L12.1169 1.79216H13.052L13.8832 1.68826L15.026 1.48047H15.3377C15.3377 1.48047 15.5455 1.50322 15.5455 1.58436C15.5455 1.79216 15.5455 1.89605 15.5455 1.89605V2.41553V2.51943C15.5455 2.58869 15.6494 3.05969 15.6494 3.14281C15.6494 3.22592 15.6494 3.14281 15.6494 3.3506L15.7533 3.97398L15.8572 4.38956C15.9611 4.38956 16.2104 4.38956 16.3767 4.38956C16.5429 4.38956 16.9308 4.38956 17.1039 4.38956L17.6234 4.59735L18.039 4.80514L18.2468 5.22073C18.2814 5.22073 18.4754 5.28307 18.9741 5.53242L19.8053 5.84411H20.6364V4.80514L21.052 4.59735L21.5715 4.38956L22.1949 4.59735L22.6105 4.80514L23.5455 5.22073H24.2728L24.7923 5.53242L25.5196 5.74021H26.039L26.1429 5.32462H26.7663L27.4936 5.53242H28.4287V6.0519V7.29865V7.92203L28.6364 8.5454L28.8442 9.37657L29.8832 11.4545L30.091 12.8051L30.8183 13.4285L31.0261 14.7792L33.2079 16.4415V17.1688L33.9352 17.4805L34.3507 17.7922L35.3897 17.3766L36.117 17.1688L36.9482 16.961L37.4676 16.8571V17.4805L37.2598 18.3116L35.5975 20.909L33.2079 22.987L32.065 24.1298L31.13 25.4805L31.0261 26.6233L31.13 27.974L31.3378 28.909H31.6494V31.8181L31.3378 32.1298L29.2598 33.4805L28.7403 33.9999V34.6233L28.9481 35.4545V36.5974L28.7403 36.8051L27.7014 37.3246L27.3897 38.0519V39.1948L26.9741 39.6103L26.4546 40.1298L26.039 41.0649L25.3118 41.6883L24.6884 42.4155L23.9611 42.6233L23.026 42.7272L21.8832 42.8311L20.8442 42.935L20.3247 43.1428L19.9091 42.8311L19.5975 42.2077C19.5628 42.1038 19.5143 41.8961 19.5975 41.8961C19.6806 41.8961 19.6321 41.4805 19.5975 41.2727L19.2858 40.7532L19.078 39.7142L18.6624 39.1948L18.039 38.6753V38.0519L17.8312 37.8441V36.5974L17.6234 35.6623L17.4156 35.1428L16.3767 33.2727V31.4025L17.2078 29.7402V28.7012L16.8962 28.4935L16.7923 27.8701L17 27.7662V27.4545L16.3767 25.8961L14.6104 23.7142L14.5065 23.4025H14.8182L15.1299 22.1558V21.0129L14.4026 20.5974" stroke="white" stroke-width="1.4"/>
<path d="M33.5492 34.7428L33.207 35.1429V35.7663L33.5188 36.2857L33.9344 37.1169L34.35 37.4286L34.5578 37.1169H35.1811L35.5967 36.8052V36.2857L35.8045 35.7663V35.1429L36.1162 34.3117L36.4279 33.4805L36.6357 32.9611V32.4416L36.8435 31.8182L37.1552 31.6104V31.4026L36.8435 31.0909V30.4676L36.6357 29.9481C36.6357 29.9481 36.4681 29.8337 36.3492 29.8428C36.0896 29.8626 36.1162 30.4676 36.1162 30.4676L35.8045 30.6753L35.5967 31.4026L35.1811 31.7025L34.5992 31.9428L33.9344 32.2338L33.8992 32.2928L33.5188 33.4805L33.5492 34.7428ZM33.5492 34.7428L33.5188 34.7273" stroke="white" stroke-width="1.05"/>
</svg>
