<svg width="41" height="57" viewBox="0 0 41 57" fill="none" xmlns="http://www.w3.org/2000/svg">
<path d="M1 23.935L1.1039 23.5194L1.31169 23.1038L1.41559 22.8961L1.51948 22.6883L1.62338 22.5844L1.83117 22.4805V21.8571L2.14286 21.5454L2.35065 21.3376L2.55845 21.0259L2.76624 20.7142L2.97403 20.5064L3.59741 20.1948L4.013 19.7792L4.32469 19.5714C4.39395 19.5714 4.55326 19.3636 4.63637 19.3636C4.71949 19.3636 4.67101 18.6017 4.63637 18.2207L4.94806 17.3896L5.46755 16.974L6.19482 16.5584L6.40261 16.0389L6.9221 15.8311H8.89613L9.83119 15.4155M9.83119 15.4155C9.90046 15.3116 9.41561 15.4155 9.41561 15.4155H9.83119ZM9.83119 15.4155L10.1429 15.1038L11.3896 14.8961L12.1169 14.7922H13.052L13.8832 14.6883L15.026 14.4805H15.3377C15.3377 14.4805 15.5455 14.5032 15.5455 14.5844C15.5455 14.7922 15.5455 14.8961 15.5455 14.8961V15.4155V15.5194C15.5455 15.5887 15.6494 16.0597 15.6494 16.1428C15.6494 16.2259 15.6494 16.1428 15.6494 16.3506L15.7533 16.974L15.8572 17.3896C15.9611 17.3896 16.2104 17.3896 16.3767 17.3896C16.5429 17.3896 16.9308 17.3896 17.1039 17.3896L17.6234 17.5974L18.039 17.8051L18.2468 18.2207C18.2814 18.2207 18.4754 18.2831 18.9741 18.5324L19.8053 18.8441H20.6364V17.8051L21.052 17.5974L21.5715 17.3896L22.1949 17.5974L22.6105 17.8051L23.5455 18.2207H24.2728L24.7923 18.5324L25.5196 18.7402H26.039L26.1429 18.3246H26.7663L27.4936 18.5324H28.4287V19.0519V20.2987V20.922L28.6364 21.5454L28.8442 22.3766L29.8832 24.4545L30.091 25.8051L30.8183 26.4285L31.0261 27.7792L33.2079 29.4415V30.1688L33.9352 30.4805L34.3507 30.7922L35.3897 30.3766L36.117 30.1688L36.9482 29.961L37.4676 29.8571V30.4805L37.2598 31.3116L35.5975 33.909L33.2079 35.987L32.065 37.1298L31.13 38.4805L31.0261 39.6233L31.13 40.974L31.3378 41.909H31.6494V44.8181L31.3378 45.1298L29.2598 46.4805L28.7403 46.9999V47.6233L28.9481 48.4545V49.5974L28.7403 49.8051L27.7014 50.3246L27.3897 51.0519V52.1948L26.9741 52.6103L26.4546 53.1298L26.039 54.0649L25.3118 54.6883L24.6884 55.4155L23.9611 55.6233L23.026 55.7272L21.8832 55.8311L20.8442 55.935L20.3247 56.1428L19.9091 55.8311L19.5975 55.2077C19.5628 55.1038 19.5143 54.8961 19.5975 54.8961C19.6806 54.8961 19.6321 54.4805 19.5975 54.2727L19.2858 53.7532L19.078 52.7142L18.6624 52.1948L18.039 51.6753V51.0519L17.8312 50.8441V49.5974L17.6234 48.6623L17.4156 48.1428L16.3767 46.2727V44.4025L17.2078 42.7402V41.7012L16.8962 41.4935L16.7923 40.8701L17 40.7662V40.4545L16.3767 38.8961L14.6104 36.7142L14.5065 36.4025H14.8182L15.1299 35.1558V34.0129L14.4026 33.5974" stroke="white" stroke-width="1.4"/>
<path d="M33.5492 47.7428L33.207 48.1429V48.7663L33.5188 49.2857L33.9344 50.1169L34.35 50.4286L34.5578 50.1169H35.1811L35.5967 49.8052V49.2857L35.8045 48.7663V48.1429L36.1162 47.3117L36.4279 46.4805L36.6357 45.9611V45.4416L36.8435 44.8182L37.1552 44.6104V44.4026L36.8435 44.0909V43.4676L36.6357 42.9481C36.6357 42.9481 36.4681 42.8337 36.3492 42.8428C36.0896 42.8626 36.1162 43.4676 36.1162 43.4676L35.8045 43.6753L35.5967 44.4026L35.1811 44.7025L34.5992 44.9428L33.9344 45.2338L33.8992 45.2928L33.5188 46.4805L33.5492 47.7428ZM33.5492 47.7428L33.5188 47.7273" stroke="white" stroke-width="1.05"/>
<path d="M20.1367 32.4805L29.0718 6.09091L40.1887 1" stroke="white" stroke-width="1.4"/>
<path d="M21.2364 4.7512C21.2364 4.7512 19.9344 2.06304 19.4099 2.92471C19.1292 3.3858 19.4099 4.30692 19.4099 4.30692L19.7554 5.98533L20.4959 7.51564L21.8288 9.14469L22.5693 9.83579L23.8528 10.9218L25.0869 11.7117H25.9755L26.7653 11.8598L26.9134 11.1686L26.3704 10.0826L24.9388 8.50294L23.6059 7.8612L22.9148 6.7258L21.2364 4.7512Z" stroke="white" stroke-width="1.4"/>
</svg>
