<svg width="41" height="57" viewBox="0 0 41 57" fill="none" xmlns="http://www.w3.org/2000/svg">
<path d="M0.999512 23.935L1.10341 23.5194L1.3112 23.1038L1.4151 22.8961L1.51899 22.6883L1.62289 22.5844L1.83068 22.4805V21.8571L2.14237 21.5454L2.35017 21.3376L2.55796 21.0259L2.76575 20.7142L2.97354 20.5064L3.59692 20.1948L4.01251 19.7792L4.3242 19.5714C4.39346 19.5714 4.55277 19.3636 4.63589 19.3636C4.719 19.3636 4.67052 18.6017 4.63589 18.2207L4.94758 17.3896L5.46706 16.974L6.19433 16.5584L6.40213 16.0389L6.92161 15.8311H8.89564L9.83071 15.4155M9.83071 15.4155C9.89997 15.3116 9.41512 15.4155 9.41512 15.4155H9.83071ZM9.83071 15.4155L10.1424 15.1038L11.3892 14.8961L12.1164 14.7922H13.0515L13.8827 14.6883L15.0255 14.4805H15.3372C15.3372 14.4805 15.545 14.5032 15.545 14.5844C15.545 14.7922 15.545 14.8961 15.545 14.8961V15.4155V15.5194C15.545 15.5887 15.6489 16.0597 15.6489 16.1428C15.6489 16.2259 15.6489 16.1428 15.6489 16.3506L15.7528 16.974L15.8567 17.3896C15.9606 17.3896 16.2099 17.3896 16.3762 17.3896C16.5424 17.3896 16.9303 17.3896 17.1035 17.3896L17.6229 17.5974L18.0385 17.8051L18.2463 18.2207C18.2809 18.2207 18.4749 18.2831 18.9736 18.5324L19.8048 18.8441H20.6359V17.8051L21.0515 17.5974L21.571 17.3896L22.1944 17.5974L22.61 17.8051L23.545 18.2207H24.2723L24.7918 18.5324L25.5191 18.7402H26.0385L26.1424 18.3246H26.7658L27.4931 18.5324H28.4282V19.0519V20.2987V20.922L28.636 21.5454L28.8437 22.3766L29.8827 24.4545L30.0905 25.8051L30.8178 26.4285L31.0256 27.7792L33.2074 29.4415V30.1688L33.9347 30.4805L34.3503 30.7922L35.3892 30.3766L36.1165 30.1688L36.9477 29.961L37.4672 29.8571V30.4805L37.2594 31.3116L35.597 33.909L33.2074 35.987L32.0645 37.1298L31.1295 38.4805L31.0256 39.6233L31.1295 40.974L31.3373 41.909H31.649V44.8181L31.3373 45.1298L29.2593 46.4805L28.7399 46.9999V47.6233L28.9476 48.4545V49.5974L28.7399 49.8051L27.7009 50.3246L27.3892 51.0519V52.1948L26.9736 52.6103L26.4541 53.1298L26.0385 54.0649L25.3113 54.6883L24.6879 55.4155L23.9606 55.6233L23.0256 55.7272L21.8827 55.8311L20.8437 55.935L20.3242 56.1428L19.9087 55.8311L19.597 55.2077C19.5623 55.1038 19.5139 54.8961 19.597 54.8961C19.6801 54.8961 19.6316 54.4805 19.597 54.2727L19.2853 53.7532L19.0775 52.7142L18.6619 52.1948L18.0385 51.6753V51.0519L17.8307 50.8441V49.5974L17.6229 48.6623L17.4151 48.1428L16.3762 46.2727V44.4025L17.2074 42.7402V41.7012L16.8957 41.4935L16.7918 40.8701L16.9996 40.7662V40.4545L16.3762 38.8961L14.6099 36.7142L14.506 36.4025H14.8177L15.1294 35.1558V34.0129L14.4021 33.5974" stroke="white" stroke-width="1.4"/>
<path d="M33.5497 47.7428L33.2075 48.1429V48.7663L33.5193 49.2857L33.9349 50.1169L34.3504 50.4286L34.5582 50.1169H35.1816L35.5972 49.8052V49.2857L35.805 48.7663V48.1429L36.1167 47.3117L36.4284 46.4805L36.6362 45.9611V45.4416L36.844 44.8182L37.1557 44.6104V44.4026L36.844 44.0909V43.4676L36.6362 42.9481C36.6362 42.9481 36.4686 42.8337 36.3497 42.8428C36.0901 42.8626 36.1167 43.4676 36.1167 43.4676L35.805 43.6753L35.5972 44.4026L35.1816 44.7025L34.5997 44.9428L33.9349 45.2338L33.8997 45.2928L33.5193 46.4805L33.5497 47.7428ZM33.5497 47.7428L33.5193 47.7273" stroke="white" stroke-width="1.05"/>
<path d="M20.1377 32.4805L29.0728 6.09091L40.1897 1" stroke="white" stroke-width="1.4"/>
<path d="M21.2369 4.7512C21.2369 4.7512 19.9349 2.06304 19.4104 2.92471C19.1297 3.3858 19.4104 4.30692 19.4104 4.30692L19.7559 5.98533L20.4964 7.51564L21.8293 9.14469L22.5698 9.83579L23.8532 10.9218L25.0874 11.7117H25.9759L26.7658 11.8598L26.9139 11.1686L26.3709 10.0826L24.9393 8.50294L23.6064 7.8612L22.9153 6.7258L21.2369 4.7512Z" stroke="white" stroke-width="1.4"/>
</svg>
